<svg width="40" height="40" viewBox="0 0 40 40" fill="none" xmlns="http://www.w3.org/2000/svg">
<path fill-rule="evenodd" clip-rule="evenodd" d="M25.6998 18.4714C25.6998 18.4714 18.2329 30.5786 12.1111 30.5786C1.40326 30.5786 11.3822 7.51367 19.1918 7.51367C24.6411 7.51367 25.6998 18.4714 25.6998 18.4714Z" fill="#FF6600"/>
<path fill-rule="evenodd" clip-rule="evenodd" d="M34.5723 33.6977C32.4451 35.9612 29.8198 37.6981 26.9044 38.7706C23.989 39.8431 20.8639 40.2218 17.7767 39.8766C14.6895 39.5314 11.7252 38.4718 9.11881 36.7818C6.51245 35.0918 4.33573 32.818 2.76123 30.1406C4.5314 32.5481 7.53375 34.1532 11.803 34.1532C22.3199 34.1532 28.2899 25.9805 28.2899 25.9805C28.2899 25.9805 28.8062 32.4397 34.5593 33.6977H34.5723Z" fill="#FF6600"/>
<path fill-rule="evenodd" clip-rule="evenodd" d="M37.7223 10.7451C39.2963 13.7527 40.0781 17.1116 39.9939 20.505C39.9096 23.8984 38.9621 27.2144 37.2407 30.1401C35.8792 29.3764 34.8725 28.1082 34.4379 26.609L32.1558 19.7724L37.7223 10.7451Z" fill="#FF6600"/>
<path fill-rule="evenodd" clip-rule="evenodd" d="M20.0031 0.0173688C25.0185 0.0140335 29.8513 1.89881 33.5398 5.29665L29.7521 11.4088C28.3811 7.84302 25.5957 4.2729 20.1767 4.2729C9.07841 4.2729 0.852307 16.3888 0.852307 23.9846C0.849861 24.9669 0.975283 25.9454 1.22543 26.8953C0.115582 23.8725 -0.247948 20.6265 0.165719 17.4331C0.579385 14.2398 1.75802 11.1934 3.60147 8.55306C5.44491 5.91269 7.89866 3.75634 10.7542 2.26726C13.6097 0.778179 16.7826 0.000388507 20.0031 0V0.0173688Z" fill="#FF6600"/>
</svg>
