<svg width="24" height="24" viewBox="0 0 24 24" fill="none" xmlns="http://www.w3.org/2000/svg">
<path d="M22.58 7.3501L12.475 1.8971C12.178 1.7371 11.821 1.7371 11.525 1.8971L1.42496 7.3501C0.938957 7.6141 0.757957 8.2201 1.01996 8.7061C1.19996 9.0411 1.54496 9.2311 1.89996 9.2311C2.05996 9.2311 2.22396 9.1931 2.37496 9.1111L3.10896 8.7151L4.69896 19.9651C4.91496 21.1791 6.00896 22.0271 7.35896 22.0271H16.641C17.991 22.0271 19.085 21.1791 19.303 19.9391L20.891 8.7141L21.628 9.1121C22.113 9.3751 22.72 9.1941 22.982 8.7081C23.245 8.2221 23.062 7.6151 22.578 7.3531L22.58 7.3501ZM12 15.4351C10.205 15.4351 8.74996 13.9801 8.74996 12.1851C8.74996 10.3901 10.205 8.9351 12 8.9351C13.795 8.9351 15.25 10.3901 15.25 12.1851C15.25 13.9801 13.795 15.4351 12 15.4351Z" fill="#FF6600"/>
</svg>
